#Comment line ignore any data following # character 
#Hierarchical Translation and Rotation (.htr) file 
[Header]	
#Header keywords are followed by a single value 
FileType HTR		#Single word string
DataType HTRS		#Translation followed by rotation and scale data
FileVersion 1		#integer
NumSegments 64		#integer
NumFrames 3		#integer
DataFrameRate 30		#integer, data frame rate in this file
EulerRotationOrder ZYX
CalibrationUnits mm
RotationUnits Degrees
GlobalAxisofGravity Y
BoneLengthAxis Y
ScaleFactor 1.00
[SegmentNames&Hierarchy]
#CHILD	PARENT
Pinger_Root GLOBAL
Pelvis Pinger_Root
L_Hip Pelvis
R_Hip Pelvis
Rear_Leg01 Pelvis
Spine1 Pelvis
L_Leg01 L_Hip
L_Leg02 L_Leg01
L_Leg03 L_Leg02
L_Foot L_Leg03
L_Toe1_01 L_Foot
L_Toe2_01 L_Foot
L_Toe3_01 L_Foot
planeAlignerLeft L_Foot
L_Toe1_02 L_Toe1_01
L_Toe1_03 L_Toe1_02
L_Toe2_02 L_Toe2_01
L_Toe2_03 L_Toe2_02
L_Toe3_02 L_Toe3_01
L_Toe3_03 L_Toe3_02
planeLockWeightLeft planeAlignerLeft
R_Leg01 R_Hip
R_Leg02 R_Leg01
R_Leg03 R_Leg02
R_Foot R_Leg03
planeAlignerRight R_Foot
R_Toe1_01 R_Foot
R_Toe2_01 R_Foot
R_Toe3_01 R_Foot
planeLockWeightRight planeAlignerRight
R_Toe1_02 R_Toe1_01
R_Toe1_03 R_Toe1_02
R_Toe2_02 R_Toe2_01
R_Toe2_03 R_Toe2_02
R_Toe3_02 R_Toe3_01
R_Toe3_03 R_Toe3_02
Rear_Leg02 Rear_Leg01
Rear_Leg03 Rear_Leg02
Rear_Leg04 Rear_Leg03
Rear_Foot Rear_Leg04
planeAlignerCenter Rear_Foot
Rear_Toe1_01 Rear_Foot
Rear_Toe2_01 Rear_Foot
Rear_Toe3_01 Rear_Foot
planeLockWeightCenter planeAlignerCenter
Rear_Toe1_02 Rear_Toe1_01
Rear_Toe1_03 Rear_Toe1_02
Rear_Toe2_02 Rear_Toe2_01
Rear_Toe2_03 Rear_Toe2_02
Rear_Toe3_02 Rear_Toe3_01
Rear_Toe3_03 Rear_Toe3_02
Back_Bone Spine1
Head Spine1
Motor_Bone Back_Bone
Ping_Mechanism Back_Bone
BN_LookIK Head
bottomMouth Head
L_Mouth01 Head
L_mouthFront Head
mouthGun Head
R_Mouth01 Head
R_mouthFront Head
TopMouth Head
weapon_bone Head
[BasePosition]
#SegmentName Tx, Ty, Tz, Rx, Ry, Rz, BoneLength
Pinger_Root 0.000000 0.000000 0.000000 -90.000000 0.000000 0.000000 10.000000 
Pelvis 0.000000 0.000000 0.000000 0.000000 0.000000 0.000000 10.000000 
L_Hip 0.000000 0.000000 0.000000 0.000000 0.000000 0.000000 10.000000 
R_Hip 0.000000 0.000000 0.000000 0.000000 0.000000 0.000000 10.000000 
Rear_Leg01 0.000000 0.000000 0.000000 0.000000 0.000000 0.000000 10.000000 
Spine1 0.000000 0.000000 0.000000 0.000000 0.000000 0.000000 10.000000 
L_Leg01 0.000000 0.000000 0.000000 0.000000 0.000000 0.000000 10.000000 
L_Leg02 0.000000 0.000000 0.000000 0.000000 0.000000 0.000000 10.000000 
L_Leg03 0.000000 0.000000 0.000000 0.000000 0.000000 0.000000 10.000000 
L_Foot 0.000000 0.000000 0.000000 0.000000 0.000000 0.000000 10.000000 
L_Toe1_01 0.000000 0.000000 0.000000 0.000000 0.000000 0.000000 10.000000 
L_Toe2_01 0.000000 0.000000 0.000000 0.000000 0.000000 0.000000 10.000000 
L_Toe3_01 0.000000 0.000000 0.000000 0.000000 0.000000 0.000000 10.000000 
planeAlignerLeft 0.000000 0.000000 0.000000 0.000000 0.000000 0.000000 10.000000 
L_Toe1_02 0.000000 0.000000 0.000000 0.000000 0.000000 0.000000 10.000000 
L_Toe1_03 0.000000 0.000000 0.000000 0.000000 0.000000 0.000000 10.000000 
L_Toe2_02 0.000000 0.000000 0.000000 0.000000 0.000000 0.000000 10.000000 
L_Toe2_03 0.000000 0.000000 0.000000 0.000000 0.000000 0.000000 10.000000 
L_Toe3_02 0.000000 0.000000 0.000000 0.000000 0.000000 0.000000 10.000000 
L_Toe3_03 0.000000 0.000000 0.000000 0.000000 0.000000 0.000000 10.000000 
planeLockWeightLeft 0.000000 0.000000 0.000000 0.000000 0.000000 0.000000 10.000000 
R_Leg01 0.000000 0.000000 0.000000 0.000000 0.000000 0.000000 10.000000 
R_Leg02 0.000000 0.000000 0.000000 0.000000 0.000000 0.000000 10.000000 
R_Leg03 0.000000 0.000000 0.000000 0.000000 0.000000 0.000000 10.000000 
R_Foot 0.000000 0.000000 0.000000 0.000000 0.000000 0.000000 10.000000 
planeAlignerRight 0.000000 0.000000 0.000000 0.000000 0.000000 0.000000 10.000000 
R_Toe1_01 0.000000 0.000000 0.000000 0.000000 0.000000 0.000000 10.000000 
R_Toe2_01 0.000000 0.000000 0.000000 0.000000 0.000000 0.000000 10.000000 
R_Toe3_01 0.000000 0.000000 0.000000 0.000000 0.000000 0.000000 10.000000 
planeLockWeightRight 0.000000 0.000000 0.000000 0.000000 0.000000 0.000000 10.000000 
R_Toe1_02 0.000000 0.000000 0.000000 0.000000 0.000000 0.000000 10.000000 
R_Toe1_03 0.000000 0.000000 0.000000 0.000000 0.000000 0.000000 10.000000 
R_Toe2_02 0.000000 0.000000 0.000000 0.000000 0.000000 0.000000 10.000000 
R_Toe2_03 0.000000 0.000000 0.000000 0.000000 0.000000 0.000000 10.000000 
R_Toe3_02 0.000000 0.000000 0.000000 0.000000 0.000000 0.000000 10.000000 
R_Toe3_03 0.000000 0.000000 0.000000 0.000000 0.000000 0.000000 10.000000 
Rear_Leg02 0.000000 0.000000 0.000000 0.000000 0.000000 0.000000 10.000000 
Rear_Leg03 0.000000 0.000000 0.000000 0.000000 0.000000 0.000000 10.000000 
Rear_Leg04 0.000000 0.000000 0.000000 0.000000 0.000000 0.000000 10.000000 
Rear_Foot 0.000000 0.000000 0.000000 0.000000 0.000000 0.000000 10.000000 
planeAlignerCenter 0.000000 0.000000 0.000000 0.000000 0.000000 0.000000 10.000000 
Rear_Toe1_01 0.000000 0.000000 0.000000 0.000000 0.000000 0.000000 10.000000 
Rear_Toe2_01 0.000000 0.000000 0.000000 0.000000 0.000000 0.000000 10.000000 
Rear_Toe3_01 0.000000 0.000000 0.000000 0.000000 0.000000 0.000000 10.000000 
planeLockWeightCenter 0.000000 0.000000 0.000000 0.000000 0.000000 0.000000 10.000000 
Rear_Toe1_02 0.000000 0.000000 0.000000 0.000000 0.000000 0.000000 10.000000 
Rear_Toe1_03 0.000000 0.000000 0.000000 0.000000 0.000000 0.000000 10.000000 
Rear_Toe2_02 0.000000 0.000000 0.000000 0.000000 0.000000 0.000000 10.000000 
Rear_Toe2_03 0.000000 0.000000 0.000000 0.000000 0.000000 0.000000 10.000000 
Rear_Toe3_02 0.000000 0.000000 0.000000 0.000000 0.000000 0.000000 10.000000 
Rear_Toe3_03 0.000000 0.000000 0.000000 0.000000 0.000000 0.000000 10.000000 
Back_Bone 0.000000 0.000000 0.000000 0.000000 0.000000 0.000000 10.000000 
Head 0.000000 0.000000 0.000000 0.000000 0.000000 0.000000 10.000000 
Motor_Bone 0.000000 0.000000 0.000000 0.000000 0.000000 0.000000 10.000000 
Ping_Mechanism 0.000000 0.000000 0.000000 0.000000 0.000000 0.000000 10.000000 
BN_LookIK 0.000000 0.000000 0.000000 0.000000 0.000000 0.000000 10.000000 
bottomMouth 0.000000 0.000000 0.000000 0.000000 0.000000 0.000000 10.000000 
L_Mouth01 0.000000 0.000000 0.000000 0.000000 0.000000 0.000000 10.000000 
L_mouthFront 0.000000 0.000000 0.000000 0.000000 0.000000 0.000000 10.000000 
mouthGun 0.000000 0.000000 0.000000 0.000000 0.000000 0.000000 10.000000 
R_Mouth01 0.000000 0.000000 0.000000 0.000000 0.000000 0.000000 10.000000 
R_mouthFront 0.000000 0.000000 0.000000 0.000000 0.000000 0.000000 10.000000 
TopMouth 0.000000 0.000000 0.000000 0.000000 0.000000 0.000000 10.000000 
weapon_bone 0.000000 0.000000 0.000000 0.000000 0.000000 0.000000 10.000000 
#Beginning of Data. Separated by tabs
#Fr	Tx	Ty	Tz	Rx	Ry	Rz	SF
[Pinger_Root]
42 0.000000 0.000000 0.000000 -0.000075 -0.000000 -0.000020 0.000000
43 0.000000 0.000000 0.000000 -0.000075 -0.000000 -0.000020 0.000000
44 0.000000 0.000000 0.000000 -0.000075 -0.000000 -0.000020 0.000000
[Pelvis]
42 89.703827 901.470581 4211.774414 -92.631630 -75.501816 84.955811 4308.101563
43 90.351532 899.134521 4207.819336 -92.924599 -76.073334 85.247894 4303.759766
44 90.612175 898.347046 4201.257813 -93.121223 -76.846199 85.448959 4297.185547
[L_Hip]
42 5.766392 125.831482 872.656799 160.158691 -45.484905 122.312202 881.701050
43 5.766392 125.831482 872.656799 160.158691 -45.484905 122.312202 881.701050
44 5.766392 125.831482 872.656799 160.158691 -45.484894 122.312202 881.701050
[R_Hip]
42 5.765438 125.836372 -872.654907 38.087841 49.812687 125.703735 881.699829
43 5.765438 125.836372 -872.654907 38.087841 49.812687 125.703735 881.699829
44 5.765438 125.836372 -872.654907 38.087841 49.812687 125.703735 881.699829
[Rear_Leg01]
42 -192.298416 -925.602966 -0.001907 170.211578 3.797915 -159.479355 945.367432
43 -192.298416 -925.602966 -0.001907 170.112869 3.568393 -159.949921 945.367432
44 -192.298416 -925.602966 -0.001907 170.046677 3.376942 -160.132080 945.367432
[Spine1]
42 290.604584 5.007505 0.000477 7.228747 -0.814706 9.829172 290.647736
43 290.604584 5.007505 0.000477 7.231280 -0.808776 10.590090 290.647736
44 290.604584 5.007505 0.000477 7.233891 -0.802878 11.351170 290.647736
[L_Leg01]
42 761.932007 -0.002384 -0.069261 18.337997 -14.610062 -8.429877 761.932068
43 761.932007 -0.002384 -0.069261 18.773399 -14.361139 -8.899198 761.932068
44 761.932007 -0.002384 -0.069261 19.313349 -14.066501 -9.485886 761.932068
[L_Leg02]
42 1441.140503 -0.000954 -0.000715 3.927016 0.339659 -122.848824 1441.140503
43 1441.140503 -0.000954 -0.000715 3.932024 0.340219 -122.891907 1441.140503
44 1441.140503 -0.000954 -0.000715 3.937029 0.340784 -122.934967 1441.140503
[L_Leg03]
42 1686.963989 -0.000715 -0.000954 -0.065884 0.037664 128.269424 1686.963989
43 1686.963989 -0.000715 -0.000954 -0.065889 0.037655 128.254929 1686.963989
44 1686.963989 -0.000715 -0.000954 -0.065893 0.037647 128.240433 1686.963989
[L_Foot]
42 3041.570068 -30.715107 11.297464 1.527716 12.975924 48.148804 3041.746094
43 3041.570068 -30.715107 11.297464 1.500033 12.974794 48.225384 3041.746094
44 3041.570068 -30.715107 11.297464 1.472348 12.973700 48.301956 3041.746094
[L_Toe1_01]
42 -188.216690 -224.732346 -21.137953 94.349205 -6.852389 -179.921036 293.899567
43 -188.216690 -224.732346 -21.137953 94.348877 -6.852589 -179.915756 293.899567
44 -188.216690 -224.732346 -21.137953 94.348549 -6.852788 -179.910492 293.899567
[L_Toe2_01]
42 200.746536 -219.926590 148.838394 -92.423843 -28.375519 -45.297779 332.896027
43 200.746536 -219.926590 148.838394 -92.430260 -28.379313 -45.293163 332.896027
44 200.746536 -219.926590 148.838394 -92.436684 -28.383110 -45.288555 332.896027
[L_Toe3_01]
42 188.832520 -219.859131 -191.078659 -99.226128 16.174072 -59.551369 347.140900
43 188.832520 -219.859131 -191.078659 -99.214043 16.176517 -59.529957 347.140900
44 188.832520 -219.859131 -191.078659 -99.201942 16.178957 -59.508522 347.140900
[planeAlignerLeft]
42 32.993393 -469.576447 101.109520 169.306686 -76.298271 89.968506 481.470398
43 32.993317 -469.679535 101.109451 169.306686 -76.298271 89.968506 481.570923
44 32.993240 -469.782593 101.109375 169.306686 -76.298271 89.968506 481.671417
[L_Toe1_02]
42 413.761139 0.000477 0.000000 0.000203 -25.410625 -0.000182 413.761139
43 413.761139 0.000477 0.000000 0.000203 -25.410625 -0.000182 413.761139
44 413.761139 0.000477 0.000000 0.000203 -25.410625 -0.000182 413.761139
[L_Toe1_03]
42 464.317322 0.000358 -0.000089 0.004533 59.987892 0.004533 464.317322
43 464.317322 0.000358 -0.000089 0.004533 59.986847 0.004533 464.317322
44 464.317322 0.000358 -0.000089 0.004532 59.985817 0.004532 464.317322
[L_Toe2_02]
42 342.235809 -0.000477 0.000238 0.001196 -67.566002 0.001196 342.235809
43 342.235809 -0.000477 0.000238 0.001196 -67.870331 0.001196 342.235809
44 342.235809 -0.000477 0.000238 0.001195 -68.174583 0.001195 342.235809
[L_Toe2_03]
42 420.210846 -0.000715 0.000000 0.008671 74.441505 0.008671 420.210846
43 420.210846 -0.000715 0.000000 0.008945 74.920990 0.008945 420.210846
44 420.210846 -0.000715 0.000000 0.009368 75.606461 0.009368 420.210846
[L_Toe3_02]
42 329.270111 0.000954 0.000000 0.001178 -79.985725 0.001178 329.270111
43 329.270111 0.000954 0.000000 0.001178 -80.098808 0.001178 329.270111
44 329.270111 0.000954 0.000000 0.001178 -80.211845 0.001178 329.270111
[L_Toe3_03]
42 439.137451 -0.001907 0.000954 -179.994781 80.559105 -179.991272 439.137451
43 439.137451 -0.001907 0.000954 -179.995026 80.206337 -179.991516 439.137451
44 439.137451 -0.001907 0.000954 -179.995346 79.707176 -179.991837 439.137451
[planeLockWeightLeft]
42 999.998718 0.097961 0.076027 -0.011826 -0.004376 0.005620 999.998779
43 999.998718 0.097961 0.076027 -0.011826 -0.004376 0.005620 999.998779
44 999.998718 0.097961 0.076027 -0.011826 -0.004376 0.005620 999.998779
[R_Leg01]
42 761.455627 -0.001907 -0.000358 124.688942 -14.064863 28.755455 761.455688
43 761.455627 -0.001907 -0.000358 124.339035 -13.553226 29.225933 761.455688
44 761.455627 -0.001907 -0.000358 123.994202 -13.038812 29.692213 761.455688
[R_Leg02]
42 1441.140625 0.000000 -0.000238 -1.841721 -0.504404 -120.769386 1441.140625
43 1441.140625 0.000000 -0.000238 -1.838380 -0.503353 -120.691696 1441.140625
44 1441.140625 0.000000 -0.000238 -1.844387 -0.507904 -120.859299 1441.140625
[R_Leg03]
42 1686.963989 0.000954 0.001431 0.098942 -0.058826 137.503922 1686.963989
43 1686.963989 0.000954 0.001431 0.098939 -0.058832 137.510284 1686.963989
44 1686.963989 0.000954 0.001431 0.098936 -0.058837 137.516647 1686.963989
[R_Foot]
42 3041.560059 -30.531288 -11.204481 0.508195 -24.465799 52.143288 3041.734131
43 3041.560059 -30.531288 -11.204481 0.483298 -24.468904 52.179951 3041.734131
44 3041.560059 -30.531288 -11.204481 0.458399 -24.471992 52.216614 3041.734131
[planeAlignerRight]
42 -127.130661 -450.582977 -312.869629 -36.577137 -71.339012 -64.343925 563.093811
43 -127.130478 -450.686035 -312.869812 -36.577137 -71.339012 -64.343925 563.176331
44 -127.130302 -450.789093 -312.869995 -36.577137 -71.339012 -64.343925 563.258850
[R_Toe1_01]
42 -188.383347 -224.864899 21.052242 77.183556 0.050109 -175.181854 294.101532
43 -188.383347 -224.864899 21.052242 77.183235 0.050194 -175.175995 294.101532
44 -188.383347 -224.864899 21.052242 77.182892 0.050280 -175.170135 294.101532
[R_Toe2_01]
42 200.637817 -220.002121 -148.787384 -88.117317 36.065174 -50.788124 332.857574
43 200.637817 -220.002121 -148.787384 -88.136803 36.062435 -50.824547 332.857574
44 200.637817 -220.002121 -148.787384 -88.187286 36.054001 -50.917053 332.857574
[R_Toe3_01]
42 188.606735 -220.092957 191.126343 -72.860153 -9.569625 -65.726280 347.192566
43 188.606735 -220.092957 191.126343 -72.864784 -9.584076 -65.735718 347.192566
44 188.606735 -220.092957 191.126343 -72.869408 -9.598533 -65.745148 347.192566
[planeLockWeightRight]
42 999.999329 0.000000 0.076017 -0.011823 -0.004379 -0.000027 999.999329
43 999.999329 0.000000 0.076017 -0.011823 -0.004379 -0.000027 999.999329
44 999.999329 0.000000 0.076017 -0.011823 -0.004379 -0.000027 999.999329
[R_Toe1_02]
42 413.762085 0.000477 -0.000119 0.001385 -25.884604 0.001385 413.762085
43 413.762085 0.000477 -0.000119 0.001385 -25.879889 0.001385 413.762085
44 413.762085 0.000477 -0.000119 0.001385 -25.875177 0.001385 413.762085
[R_Toe1_03]
42 464.317810 0.000000 0.001088 0.004048 56.293232 0.004048 464.317810
43 464.317810 0.000000 0.001088 0.004048 56.290173 0.004048 464.317810
44 464.317810 0.000000 0.001088 0.004047 56.287113 0.004047 464.317810
[R_Toe2_02]
42 342.234741 -0.000954 0.000238 0.001212 -61.028698 0.001212 342.234741
43 342.234741 -0.000954 0.000238 0.001211 -61.453011 0.001211 342.234741
44 342.234741 -0.000954 0.000238 0.001210 -61.877300 0.001210 342.234741
[R_Toe2_03]
42 420.210846 0.000715 -0.000268 -0.004217 62.484711 -0.000617 420.210846
43 420.210846 0.000715 -0.000268 -0.004275 63.169113 -0.000680 420.210846
44 420.210846 0.000715 -0.000268 -0.004336 63.853535 -0.000746 420.210846
[R_Toe3_02]
42 329.270355 -0.000477 -0.000954 0.001185 -74.397408 0.001185 329.270355
43 329.270355 -0.000477 -0.000954 0.001184 -74.557518 0.001184 329.270355
44 329.270355 -0.000477 -0.000954 0.001184 -74.717598 0.001184 329.270355
[R_Toe3_03]
42 439.137939 0.000238 0.001431 -0.001038 82.913658 0.001298 439.137939
43 439.137939 0.000238 0.001431 -0.011568 83.287003 -0.008065 439.137939
44 439.137939 0.000238 0.001431 -0.012411 83.818703 -0.008909 439.137939
[Rear_Leg02]
42 1162.777710 -0.029802 0.005960 0.623519 -2.947135 -108.733871 1162.777710
43 1162.777710 -0.029802 0.005960 0.649431 -2.937845 -110.747139 1162.777710
44 1162.777710 -0.029802 0.005960 0.674970 -2.927666 -112.757904 1162.777710
[Rear_Leg03]
42 607.192505 -0.013351 -0.073195 0.009605 -0.004109 64.603432 607.192505
43 607.192505 -0.013351 -0.073195 0.009946 -0.004345 64.790581 607.192505
44 607.192505 -0.013351 -0.073195 0.010286 -0.004583 64.977737 607.192505
[Rear_Leg04]
42 995.874512 -0.020504 -0.011921 -0.040586 -0.014978 58.759258 995.874573
43 995.874512 -0.020504 -0.011921 -0.040633 -0.014851 59.118233 995.874573
44 995.874512 -0.020504 -0.011921 -0.040678 -0.014723 59.477219 995.874573
[Rear_Foot]
42 3096.176270 -0.067472 -0.041425 -142.313065 85.697617 46.211170 3096.176270
43 3096.176270 -0.067472 -0.041425 -142.711365 85.678772 46.196850 3096.176270
44 3096.176270 -0.067472 -0.041425 -143.107864 85.660042 46.184509 3096.176270
[planeAlignerCenter]
42 1.038027 -15.214462 -653.714417 12.240772 -0.001473 179.998184 653.892273
43 1.037992 -15.214589 -653.817200 12.240772 -0.001473 179.998184 653.994995
44 1.037957 -15.214716 -653.919983 12.240769 -0.001473 179.998184 654.097778
[Rear_Toe1_01]
42 0.653352 83.966492 -371.173737 0.244703 34.832161 90.385750 380.553192
43 0.653352 83.966492 -371.173737 0.245611 34.832443 90.385941 380.553192
44 0.653352 83.966492 -371.173737 0.246521 34.832726 90.386154 380.553192
[Rear_Toe2_01]
42 178.200760 -294.826019 -362.060547 -8.138173 23.819794 -67.031136 499.765686
43 178.200760 -294.826019 -362.060547 -8.140485 23.987209 -67.032585 499.765686
44 178.200760 -294.826019 -362.060547 -8.142797 24.154617 -67.034027 499.765686
[Rear_Toe3_01]
42 -153.359680 -308.780914 -362.060852 3.718410 22.042418 -112.309647 499.952881
43 -153.359680 -308.780914 -362.060852 3.719688 22.211386 -112.305138 499.952881
44 -153.359680 -308.780914 -362.060852 3.722741 22.469339 -112.298203 499.952881
[planeLockWeightCenter]
42 1000.000000 0.000305 0.076256 -0.011814 -0.004373 -0.000015 1000.000000
43 1000.000000 0.000305 0.076256 -0.011814 -0.004373 -0.000015 1000.000000
44 1000.000000 0.000305 0.076256 -0.011814 -0.004373 -0.000015 1000.000000
[Rear_Toe1_02]
42 379.707825 0.194073 0.000477 -0.000313 -32.644398 0.006974 379.707855
43 379.707825 0.194073 0.000477 -0.000313 -32.642673 0.006974 379.707855
44 379.707825 0.194073 0.000477 -0.000313 -32.640957 0.006974 379.707855
[Rear_Toe1_03]
42 500.129700 0.165701 0.000119 -0.003899 57.919704 -0.000261 500.129761
43 500.129700 0.165701 0.000119 -0.003898 57.905579 -0.000260 500.129761
44 500.129700 0.165701 0.000119 -0.003898 57.891453 -0.000259 500.129761
[Rear_Toe2_02]
42 340.494507 0.000238 -0.000954 0.001232 -54.447659 0.001232 340.494507
43 340.494507 0.000238 -0.000954 0.001231 -54.943954 0.001231 340.494507
44 340.494507 0.000238 -0.000954 0.001229 -55.617741 0.001229 340.494507
[Rear_Toe2_03]
42 433.103577 0.000000 0.000238 0.003373 49.282188 0.003373 433.103546
43 433.103577 0.000000 0.000238 0.003430 49.983368 0.003430 433.103546
44 433.103577 0.000000 0.000238 0.003489 50.684544 0.003489 433.103546
[Rear_Toe3_02]
42 340.494141 -0.000358 -0.000477 -0.002476 -49.490822 -0.002476 340.494171
43 340.494141 -0.000358 -0.000477 -0.002470 -50.229340 -0.002470 340.494171
44 340.494141 -0.000358 -0.000477 -0.002465 -50.967865 -0.002465 340.494171
[Rear_Toe3_03]
42 433.103577 0.001431 -0.000238 0.000436 43.785114 -0.003365 433.103546
43 433.103577 0.001431 -0.000238 0.000408 44.544029 -0.003383 433.103546
44 433.103577 0.001431 -0.000238 0.000379 45.302933 -0.003402 433.103546
[Back_Bone]
42 1312.175781 -701.934692 0.000954 -0.000001 0.000587 -90.232224 1488.125488
43 1312.175781 -701.934692 0.000954 -0.000000 0.001174 -90.033768 1488.125488
44 1312.175781 -701.934692 0.000954 0.000003 0.001760 -89.835312 1488.125488
[Head]
42 1406.159424 809.709290 0.001431 0.101007 -1.469874 10.294677 1622.625488
43 1406.159424 809.709290 0.001431 0.118257 -1.468841 10.247272 1622.625488
44 1406.159424 809.709290 0.001431 0.127749 -1.469324 10.083299 1622.625488
[Motor_Bone]
42 1158.364380 -417.834747 0.000477 -0.083458 0.091604 -104.965347 1231.419434
43 1158.364380 -417.834747 0.000477 -0.089094 0.084351 -105.462708 1231.419434
44 1158.364380 -417.834747 0.000477 -0.092319 0.080151 -105.791733 1231.419434
[Ping_Mechanism]
42 1285.798462 -453.602875 6.472061 0.000103 -0.000053 82.120995 1363.479004
43 1282.059692 -453.057983 5.938677 0.000103 -0.000053 82.120995 1359.769775
44 1278.321045 -452.513031 5.405294 0.000103 -0.000053 82.120995 1356.061157
[BN_LookIK]
42 193.241119 1380.371704 -0.002861 0.000000 89.965736 -31.038179 1393.832153
43 193.241119 1380.371704 -0.002861 0.000000 89.965736 -31.038179 1393.832153
44 193.241119 1380.371704 -0.002861 0.000000 89.965736 -31.038179 1393.832153
[bottomMouth]
42 -435.092926 615.759399 -0.000954 -0.000022 0.000016 73.527184 753.966492
43 -435.092926 615.759399 -0.000954 -0.000022 0.000016 73.527184 753.966492
44 -435.092926 615.759399 -0.000954 -0.000022 0.000016 73.527184 753.966492
[L_Mouth01]
42 554.440979 7.658243 838.222046 150.204178 23.759130 109.605339 1005.027161
43 554.440979 7.658243 838.222046 150.204178 23.759130 109.605339 1005.027161
44 554.440979 7.658243 838.222046 150.204178 23.759130 109.605339 1005.027161
[L_mouthFront]
42 551.629089 934.514771 339.150421 0.000081 2.804060 79.119301 1136.941284
43 551.629089 934.514771 339.150421 0.000081 2.804060 79.119301 1136.941284
44 551.629089 934.514771 339.150421 0.000081 2.804060 79.119301 1136.941284
[mouthGun]
42 55.332661 1627.420898 0.000000 0.000023 0.000009 -11.038128 1628.361328
43 55.332661 1627.420898 0.000000 0.000023 0.000009 -11.038128 1628.361328
44 55.332661 1627.420898 0.000000 0.000023 0.000009 -11.038128 1628.361328
[R_Mouth01]
42 554.442383 7.659197 -838.223938 29.795891 -23.759109 109.605331 1005.029541
43 554.442383 7.659197 -838.223938 29.795891 -23.759109 109.605331 1005.029541
44 554.442383 7.659197 -838.223938 29.795891 -23.759109 109.605331 1005.029541
[R_mouthFront]
42 551.629089 934.514282 -339.151367 0.000029 -2.803930 79.119133 1136.941162
43 551.629089 934.514282 -339.151367 0.000029 -2.803930 79.119133 1136.941162
44 551.629089 934.514282 -339.151367 0.000029 -2.803930 79.119133 1136.941162
[TopMouth]
42 461.269867 -56.106091 -0.008583 -0.000059 -0.000268 92.025169 464.669525
43 461.269867 -56.106091 -0.008583 -0.000059 -0.000268 92.025169 464.669525
44 461.269867 -56.106091 -0.008583 -0.000059 -0.000268 92.025169 464.669525
[weapon_bone]
42 -987.239868 1448.372803 0.001431 0.000000 89.965736 -31.038221 1752.833740
43 -987.239868 1448.372803 0.001431 0.000000 89.965736 -31.038221 1752.833740
44 -987.239868 1448.372803 0.001431 0.000000 89.965736 -31.038221 1752.833740
